<?xml version="1.0" encoding="iso-8859-1"?>
<!-- Generator: Adobe Illustrator 19.0.0, SVG Export Plug-In . SVG Version: 6.00 Build 0)  -->
<svg version="1.1" id="Layer_1" xmlns="http://www.w3.org/2000/svg" xmlns:xlink="http://www.w3.org/1999/xlink" x="0px" y="0px"
	 viewBox="0 0 512 512" style="enable-background:new 0 0 512 512;" xml:space="preserve">
<!-- <circle  style="fill:#faeefd;" cx="256" cy="256" r="256"/> -->
<circle  style="fill:transparent;" cx="256" cy="256" r="256"/>
<path style="opacity:0.1;enable-background:new    ;" d="M512,256c0-14.08-1.184-27.883-3.371-41.349l-86.411-86.405L89.781,254.624
	l76.704,42.917l11.643,72.304L313.68,505.397C427.269,479.227,512,377.541,512,256z"/>
<polygon  points="178.123,369.845 243.04,340.379 166.48,297.541 "/>
<g>
	<polygon  points="422.219,128.245 89.781,254.624 166.48,297.541 166.48,297.541 	"/>
	<polygon points="422.219,128.245 243.04,340.379 243.04,340.379 320.565,383.755 	"/>
</g>
<polygon style="fill:#faeefd;" points="422.219,128.245 166.48,297.541 166.48,297.541 243.04,340.379 243.04,340.379 "/>
<g>
</g>
<g>
</g>
<g>
</g>
<g>
</g>
<g>
</g>
<g>
</g>
<g>
</g>
<g>
</g>
<g>
</g>
<g>
</g>
<g>
</g>
<g>
</g>
<g>
</g>
<g>
</g>
<g>
</g>
</svg>
